/* XPM */
static char *backwards_xpm[] = {
/* columns rows colors chars-per-pixel */
"16 16 256 2",
"   c #fcfc04040404",
".  c #b4b4bcbcbcbc",
"X  c #64646c6c6c6c",
"o  c #3c3c44444444",
"O  c #a4a4acacacac",
"+  c #9c9ca4a4a4a4",
"@  c #5c5c64646464",
"#  c #54545c5c5c5c",
"$  c #84848c8c8c8c",
"%  c #7c7c84848484",
"&  c #6c6c74747474",
"*  c #8c8c94949494",
"=  c #fcfc04040404",
"-  c #b4b4bcbcbcbc",
";  c #64646c6c6c6c",
":  c #3c3c44444444",
">  c #a4a4acacacac",
",  c #9c9ca4a4a4a4",
"<  c #5c5c64646464",
"1  c #54545c5c5c5c",
"2  c #84848c8c8c8c",
"3  c #7c7c84848484",
"4  c #6c6c74747474",
"5  c #8c8c94949494",
"6  c #fcfc04040404",
"7  c #b4b4bcbcbcbc",
"8  c #64646c6c6c6c",
"9  c #3c3c44444444",
"0  c #a4a4acacacac",
"q  c #9c9ca4a4a4a4",
"w  c #5c5c64646464",
"e  c #54545c5c5c5c",
"r  c #84848c8c8c8c",
"t  c #7c7c84848484",
"y  c #6c6c74747474",
"u  c #8c8c94949494",
"i  c #fcfc04040404",
"p  c #b4b4bcbcbcbc",
"a  c #64646c6c6c6c",
"s  c #3c3c44444444",
"d  c #a4a4acacacac",
"f  c #9c9ca4a4a4a4",
"g  c #5c5c64646464",
"h  c #54545c5c5c5c",
"j  c #84848c8c8c8c",
"k  c #7c7c84848484",
"l  c #6c6c74747474",
"z  c #8c8c94949494",
"x  c #fcfc04040404",
"c  c #b4b4bcbcbcbc",
"v  c #64646c6c6c6c",
"b  c #3c3c44444444",
"n  c #a4a4acacacac",
"m  c #9c9ca4a4a4a4",
"M  c #5c5c64646464",
"N  c #54545c5c5c5c",
"B  c #84848c8c8c8c",
"V  c #7c7c84848484",
"C  c #6c6c74747474",
"Z  c #8c8c94949494",
"A  c #fcfc04040404",
"S  c #b4b4bcbcbcbc",
"D  c #64646c6c6c6c",
"F  c #3c3c44444444",
"G  c #a4a4acacacac",
"H  c #9c9ca4a4a4a4",
"J  c #5c5c64646464",
"K  c #54545c5c5c5c",
"L  c #84848c8c8c8c",
"P  c #7c7c84848484",
"I  c #6c6c74747474",
"U  c #8c8c94949494",
"Y  c #fcfc04040404",
"T  c #b4b4bcbcbcbc",
"R  c #64646c6c6c6c",
"E  c #3c3c44444444",
"W  c #a4a4acacacac",
"Q  c #9c9ca4a4a4a4",
"!  c #5c5c64646464",
"~  c #54545c5c5c5c",
"^  c #84848c8c8c8c",
"/  c #7c7c84848484",
"(  c #6c6c74747474",
")  c #8c8c94949494",
"_  c #fcfc04040404",
"`  c #b4b4bcbcbcbc",
"'  c #64646c6c6c6c",
"]  c #3c3c44444444",
"[  c #a4a4acacacac",
"{  c #9c9ca4a4a4a4",
"}  c #5c5c64646464",
"|  c #54545c5c5c5c",
" . c #84848c8c8c8c",
".. c #7c7c84848484",
"X. c #6c6c74747474",
"o. c #8c8c94949494",
"O. c #fcfc04040404",
"+. c #b4b4bcbcbcbc",
"@. c #64646c6c6c6c",
"#. c #3c3c44444444",
"$. c #a4a4acacacac",
"%. c #9c9ca4a4a4a4",
"&. c #5c5c64646464",
"*. c #54545c5c5c5c",
"=. c #84848c8c8c8c",
"-. c #7c7c84848484",
";. c #6c6c74747474",
":. c #8c8c94949494",
">. c #fcfc04040404",
",. c #b4b4bcbcbcbc",
"<. c #64646c6c6c6c",
"1. c #3c3c44444444",
"2. c #a4a4acacacac",
"3. c #9c9ca4a4a4a4",
"4. c #5c5c64646464",
"5. c #54545c5c5c5c",
"6. c #84848c8c8c8c",
"7. c #7c7c84848484",
"8. c #6c6c74747474",
"9. c #8c8c94949494",
"0. c #fcfc04040404",
"q. c #b4b4bcbcbcbc",
"w. c #64646c6c6c6c",
"e. c #3c3c44444444",
"r. c #a4a4acacacac",
"t. c #9c9ca4a4a4a4",
"y. c #5c5c64646464",
"u. c #54545c5c5c5c",
"i. c #84848c8c8c8c",
"p. c #7c7c84848484",
"a. c #6c6c74747474",
"s. c #8c8c94949494",
"d. c #fcfc04040404",
"f. c #b4b4bcbcbcbc",
"g. c #64646c6c6c6c",
"h. c #3c3c44444444",
"j. c #a4a4acacacac",
"k. c #9c9ca4a4a4a4",
"l. c #5c5c64646464",
"z. c #54545c5c5c5c",
"x. c #84848c8c8c8c",
"c. c #7c7c84848484",
"v. c #6c6c74747474",
"b. c #8c8c94949494",
"n. c #fcfc04040404",
"m. c #b4b4bcbcbcbc",
"M. c #64646c6c6c6c",
"N. c #3c3c44444444",
"B. c #a4a4acacacac",
"V. c #9c9ca4a4a4a4",
"C. c #5c5c64646464",
"Z. c #54545c5c5c5c",
"A. c #84848c8c8c8c",
"S. c #7c7c84848484",
"D. c #6c6c74747474",
"F. c #8c8c94949494",
"G. c #fcfc04040404",
"H. c #b4b4bcbcbcbc",
"J. c #64646c6c6c6c",
"K. c #3c3c44444444",
"L. c #a4a4acacacac",
"P. c #9c9ca4a4a4a4",
"I. c #5c5c64646464",
"U. c #54545c5c5c5c",
"Y. c #84848c8c8c8c",
"T. c #7c7c84848484",
"R. c #6c6c74747474",
"E. c #8c8c94949494",
"W. c #fcfc04040404",
"Q. c #b4b4bcbcbcbc",
"!. c #64646c6c6c6c",
"~. c #3c3c44444444",
"^. c #a4a4acacacac",
"/. c #9c9ca4a4a4a4",
"(. c #5c5c64646464",
"). c #54545c5c5c5c",
"_. c #84848c8c8c8c",
"`. c #7c7c84848484",
"'. c #6c6c74747474",
"]. c #8c8c94949494",
"[. c #fcfc04040404",
"{. c #b4b4bcbcbcbc",
"}. c #64646c6c6c6c",
"|. c #3c3c44444444",
" X c #a4a4acacacac",
".X c #9c9ca4a4a4a4",
"XX c #5c5c64646464",
"oX c #54545c5c5c5c",
"OX c #84848c8c8c8c",
"+X c #7c7c84848484",
"@X c #6c6c74747474",
"#X c #8c8c94949494",
"$X c #fcfc04040404",
"%X c #b4b4bcbcbcbc",
"&X c #64646c6c6c6c",
"*X c #3c3c44444444",
"=X c #a4a4acacacac",
"-X c #9c9ca4a4a4a4",
";X c #5c5c64646464",
":X c #54545c5c5c5c",
">X c #84848c8c8c8c",
",X c #7c7c84848484",
"<X c #6c6c74747474",
"1X c #8c8c94949494",
"2X c #fcfc04040404",
"3X c #b4b4bcbcbcbc",
"4X c #64646c6c6c6c",
"5X c #3c3c44444444",
"6X c #a4a4acacacac",
"7X c #9c9ca4a4a4a4",
"8X c #5c5c64646464",
"9X c #54545c5c5c5c",
"0X c #84848c8c8c8c",
"qX c #7c7c84848484",
"wX c #6c6c74747474",
"eX c #8c8c94949494",
"rX c #fcfc04040404",
"tX c #b4b4bcbcbcbc",
"yX c #64646c6c6c6c",
"uX c #3c3c44444444",
"iX c #a4a4acacacac",
"pX c #9c9ca4a4a4a4",
"aX c #5c5c64646464",
"sX c #54545c5c5c5c",
"dX c #84848c8c8c8c",
"fX c #7c7c84848484",
"gX c #6c6c74747474",
"hX c #8c8c94949494",
"jX c #fcfc04040404",
"kX c #b4b4bcbcbcbc",
"lX c #64646c6c6c6c",
"zX c #3c3c44444444",
"xX c #a4a4acacacac",
"cX c #9c9ca4a4a4a4",
"vX c #5c5c64646464",
"bX c #54545c5c5c5c",
"nX c #84848c8c8c8c",
"mX c #7c7c84848484",
"MX c #6c6c74747474",
"NX c #8c8c94949494",
"BX c #fcfc04040404",
"VX c #b4b4bcbcbcbc",
"CX c #64646c6c6c6c",
"ZX c #3c3c44444444",
"AX c Gray66",
"SX c #a0a0a0a0a0a0",
"DX c #606060606060",
"FX c #585858585858",
"GX c #888888888888",
"HX c #808080808080",
"JX c Gray44",
"KX c #909090909090",
"LX c Gray0",
"PX c Gray72",
"IX c #686868686868",
"UX c Gray25",
/* pixels */
"PX. . . . . . . . . . . . . . . ",
"PX. PX. . . . . . . SXPXPXPXPX. ",
"PX. PX. PXPX. . PXKXJXSX. PXPX. ",
"PX. PX. PXPX. PXKXUXDXSXPXPX. . ",
"PX. PXPXPX. PXSXUXLXDXSXPXPXPX. ",
"PX. PXPXPXPXSXUXLXLXDXSXPXPXPX. ",
"PX. PXPXPXAXUXLXLXLXDXSXPXPXPX. ",
"PX. PXPXPXIXLXLXLXLXDXSXPXPXPX. ",
"PX. PXPXSXLXLXLXLXLXDXSXPXPXPX. ",
"PX. PXPXPXDXLXLXLXLXDXSXPXPXPX. ",
"PX. PXPX. O IXLXLXLXDXSXPXPXPX. ",
"PX. PXPXPX. PXIXLXLXDXSXPXPXPX. ",
"PX. PXPXPX. . . DXLXDXSXPXPXPX. ",
"PX. PXPXPXPXPX. . IXHXAXPXPXPX. ",
"PX. PXPXPXPXPX. . . O . PX. PX. ",
"PX. PXPXPXPXPX. . . . . . . . . "
};
