/* XPM */
static char *backwards_is_xpm [] = { /* columns rows colors chars-per-pixel */
"16 16 256 2",
"   c #74747c7c7c7c",
".  c #bcbcc4c4c4c4",
"X  c #b4b4bcbcbcbc",
"o  c #8c8c94949494",
"O  c #dcdce4e4e4e4",
"+  c #ccccd4d4d4d4",
"@  c #a4a4acacacac",
"#  c #c4c4cccccccc",
"$  c #9c9ca4a4a4a4",
"%  c #74747c7c7c7c",
"&  c #bcbcc4c4c4c4",
"*  c #b4b4bcbcbcbc",
"=  c #8c8c94949494",
"-  c #dcdce4e4e4e4",
";  c #ccccd4d4d4d4",
":  c #a4a4acacacac",
">  c #c4c4cccccccc",
",  c #9c9ca4a4a4a4",
"<  c #74747c7c7c7c",
"1  c #bcbcc4c4c4c4",
"2  c #b4b4bcbcbcbc",
"3  c #8c8c94949494",
"4  c #dcdce4e4e4e4",
"5  c #ccccd4d4d4d4",
"6  c #a4a4acacacac",
"7  c #c4c4cccccccc",
"8  c #9c9ca4a4a4a4",
"9  c #74747c7c7c7c",
"0  c #bcbcc4c4c4c4",
"q  c #b4b4bcbcbcbc",
"w  c #8c8c94949494",
"e  c #dcdce4e4e4e4",
"r  c #ccccd4d4d4d4",
"t  c #a4a4acacacac",
"y  c #c4c4cccccccc",
"u  c #9c9ca4a4a4a4",
"i  c #74747c7c7c7c",
"p  c #bcbcc4c4c4c4",
"a  c #b4b4bcbcbcbc",
"s  c #8c8c94949494",
"d  c #dcdce4e4e4e4",
"f  c #ccccd4d4d4d4",
"g  c #a4a4acacacac",
"h  c #c4c4cccccccc",
"j  c #9c9ca4a4a4a4",
"k  c #74747c7c7c7c",
"l  c #bcbcc4c4c4c4",
"z  c #b4b4bcbcbcbc",
"x  c #8c8c94949494",
"c  c #dcdce4e4e4e4",
"v  c #ccccd4d4d4d4",
"b  c #a4a4acacacac",
"n  c #c4c4cccccccc",
"m  c #9c9ca4a4a4a4",
"M  c #74747c7c7c7c",
"N  c #bcbcc4c4c4c4",
"B  c #b4b4bcbcbcbc",
"V  c #8c8c94949494",
"C  c #dcdce4e4e4e4",
"Z  c #ccccd4d4d4d4",
"A  c #a4a4acacacac",
"S  c #c4c4cccccccc",
"D  c #9c9ca4a4a4a4",
"F  c #74747c7c7c7c",
"G  c #bcbcc4c4c4c4",
"H  c #b4b4bcbcbcbc",
"J  c #8c8c94949494",
"K  c #dcdce4e4e4e4",
"L  c #ccccd4d4d4d4",
"P  c #a4a4acacacac",
"I  c #c4c4cccccccc",
"U  c #9c9ca4a4a4a4",
"Y  c #74747c7c7c7c",
"T  c #bcbcc4c4c4c4",
"R  c #b4b4bcbcbcbc",
"E  c #8c8c94949494",
"W  c #dcdce4e4e4e4",
"Q  c #ccccd4d4d4d4",
"!  c #a4a4acacacac",
"~  c #c4c4cccccccc",
"^  c #9c9ca4a4a4a4",
"/  c #74747c7c7c7c",
"(  c #bcbcc4c4c4c4",
")  c #b4b4bcbcbcbc",
"_  c #8c8c94949494",
"`  c #dcdce4e4e4e4",
"'  c #ccccd4d4d4d4",
"]  c #a4a4acacacac",
"[  c #c4c4cccccccc",
"{  c #9c9ca4a4a4a4",
"}  c #74747c7c7c7c",
"|  c #bcbcc4c4c4c4",
" . c #b4b4bcbcbcbc",
".. c #8c8c94949494",
"X. c #dcdce4e4e4e4",
"o. c #ccccd4d4d4d4",
"O. c #a4a4acacacac",
"+. c #c4c4cccccccc",
"@. c #9c9ca4a4a4a4",
"#. c #74747c7c7c7c",
"$. c #bcbcc4c4c4c4",
"%. c #b4b4bcbcbcbc",
"&. c #8c8c94949494",
"*. c #dcdce4e4e4e4",
"=. c #ccccd4d4d4d4",
"-. c #a4a4acacacac",
";. c #c4c4cccccccc",
":. c #9c9ca4a4a4a4",
">. c #74747c7c7c7c",
",. c #bcbcc4c4c4c4",
"<. c #b4b4bcbcbcbc",
"1. c #8c8c94949494",
"2. c #dcdce4e4e4e4",
"3. c #ccccd4d4d4d4",
"4. c #a4a4acacacac",
"5. c #c4c4cccccccc",
"6. c #9c9ca4a4a4a4",
"7. c #74747c7c7c7c",
"8. c #bcbcc4c4c4c4",
"9. c #b4b4bcbcbcbc",
"0. c #8c8c94949494",
"q. c #dcdce4e4e4e4",
"w. c #ccccd4d4d4d4",
"e. c #a4a4acacacac",
"r. c #c4c4cccccccc",
"t. c #9c9ca4a4a4a4",
"y. c #74747c7c7c7c",
"u. c #bcbcc4c4c4c4",
"i. c #b4b4bcbcbcbc",
"p. c #8c8c94949494",
"a. c #dcdce4e4e4e4",
"s. c #ccccd4d4d4d4",
"d. c #a4a4acacacac",
"f. c #c4c4cccccccc",
"g. c #9c9ca4a4a4a4",
"h. c #74747c7c7c7c",
"j. c #bcbcc4c4c4c4",
"k. c #b4b4bcbcbcbc",
"l. c #8c8c94949494",
"z. c #dcdce4e4e4e4",
"x. c #ccccd4d4d4d4",
"c. c #a4a4acacacac",
"v. c #c4c4cccccccc",
"b. c #9c9ca4a4a4a4",
"n. c #74747c7c7c7c",
"m. c #bcbcc4c4c4c4",
"M. c #b4b4bcbcbcbc",
"N. c #8c8c94949494",
"B. c #dcdce4e4e4e4",
"V. c #ccccd4d4d4d4",
"C. c #a4a4acacacac",
"Z. c #c4c4cccccccc",
"A. c #9c9ca4a4a4a4",
"S. c #74747c7c7c7c",
"D. c #bcbcc4c4c4c4",
"F. c #b4b4bcbcbcbc",
"G. c #8c8c94949494",
"H. c #dcdce4e4e4e4",
"J. c #ccccd4d4d4d4",
"K. c #a4a4acacacac",
"L. c #c4c4cccccccc",
"P. c #9c9ca4a4a4a4",
"I. c #74747c7c7c7c",
"U. c #bcbcc4c4c4c4",
"Y. c #b4b4bcbcbcbc",
"T. c #8c8c94949494",
"R. c #dcdce4e4e4e4",
"E. c #ccccd4d4d4d4",
"W. c #a4a4acacacac",
"Q. c #c4c4cccccccc",
"!. c #9c9ca4a4a4a4",
"~. c #74747c7c7c7c",
"^. c #bcbcc4c4c4c4",
"/. c #b4b4bcbcbcbc",
"(. c #8c8c94949494",
"). c #dcdce4e4e4e4",
"_. c #ccccd4d4d4d4",
"`. c #a4a4acacacac",
"'. c #c4c4cccccccc",
"]. c #9c9ca4a4a4a4",
"[. c #74747c7c7c7c",
"{. c #bcbcc4c4c4c4",
"}. c #b4b4bcbcbcbc",
"|. c #8c8c94949494",
" X c #dcdce4e4e4e4",
".X c #ccccd4d4d4d4",
"XX c #a4a4acacacac",
"oX c #c4c4cccccccc",
"OX c #9c9ca4a4a4a4",
"+X c #74747c7c7c7c",
"@X c #bcbcc4c4c4c4",
"#X c #b4b4bcbcbcbc",
"$X c #8c8c94949494",
"%X c #dcdce4e4e4e4",
"&X c #ccccd4d4d4d4",
"*X c #a4a4acacacac",
"=X c #c4c4cccccccc",
"-X c #9c9ca4a4a4a4",
";X c #74747c7c7c7c",
":X c #bcbcc4c4c4c4",
">X c #b4b4bcbcbcbc",
",X c #8c8c94949494",
"<X c #dcdce4e4e4e4",
"1X c #ccccd4d4d4d4",
"2X c #a4a4acacacac",
"3X c #c4c4cccccccc",
"4X c #9c9ca4a4a4a4",
"5X c #74747c7c7c7c",
"6X c #bcbcc4c4c4c4",
"7X c #b4b4bcbcbcbc",
"8X c #8c8c94949494",
"9X c #dcdce4e4e4e4",
"0X c #ccccd4d4d4d4",
"qX c #a4a4acacacac",
"wX c #c4c4cccccccc",
"eX c #9c9ca4a4a4a4",
"rX c #74747c7c7c7c",
"tX c #bcbcc4c4c4c4",
"yX c #b4b4bcbcbcbc",
"uX c #8c8c94949494",
"iX c #dcdce4e4e4e4",
"pX c #ccccd4d4d4d4",
"aX c #a4a4acacacac",
"sX c #c4c4cccccccc",
"dX c #9c9ca4a4a4a4",
"fX c #74747c7c7c7c",
"gX c #bcbcc4c4c4c4",
"hX c #b4b4bcbcbcbc",
"jX c #8c8c94949494",
"kX c #dcdce4e4e4e4",
"lX c #ccccd4d4d4d4",
"zX c #a4a4acacacac",
"xX c #c4c4cccccccc",
"cX c #9c9ca4a4a4a4",
"vX c #74747c7c7c7c",
"bX c #bcbcc4c4c4c4",
"nX c #b4b4bcbcbcbc",
"mX c #8c8c94949494",
"MX c #dcdce4e4e4e4",
"NX c #ccccd4d4d4d4",
"BX c #a4a4acacacac",
"VX c #c4c4cccccccc",
"CX c #9c9ca4a4a4a4",
"ZX c #74747c7c7c7c",
"AX c #bcbcc4c4c4c4",
"SX c #b4b4bcbcbcbc",
"DX c #8c8c94949494",
"FX c Gray88",
"GX c #d0d0d0d0d0d0",
"HX c Gray66",
"JX c #c8c8c8c8c8c8",
"KX c #a0a0a0a0a0a0",
"LX c Gray47",
"PX c #c0c0c0c0c0c0",
"IX c Gray72",
"UX c #909090909090",
/* pixels */
"IX. IX. IXIX. IX. IXIX. IX. IX. ",
"IXPXIXPXPXIXPXPXIXGXFXGXPXPXIXPX",
"IXPXIXPX. IXIXPXGX+ FXO PXPXPXIX",
"IXPXIXPXPXIXPXGX+ HXGXFXPXIXPXIX",
"IXPXIXPX. IXGX+ HXLX+ FXPXIXPX. ",
"IXPXIXPXPXGXGX@ UXLXJXFXPXPXIXIX",
"IXPXIXPX. PXHXLXUXLXGXFXPXIXPXIX",
"IXPXIXPX@ o LXUXLX  GXFXPXPXIXIX",
"IXPXIXPXKXLXUXLX  UXPXFXPXPXIXPX",
"IXPXIXPX@ o LXUXLXLXGXFXPXPXPXIX",
"IXPXIXPXPXIXUXLXLXLX+ FXPXPXIXPX",
"IXPXIXPXPXIXIXUXLXUXPXFXPXIXPXIX",
"IXPXIXPX. IXIX@ KXLXGXFXPXPXIXIX",
"IXPXIXPXPXIXPXPXHXo IXGXPXPXPXIX",
"IXPXIXPX. IXIXPXPXIXHXPXPXIXPXIX",
"IXPXIXPXPXIXPXPXIXPXIXPXPXPXPXIX"
};
