/* XPM */
static char *forward_is_xpm[] = {
/* columns rows colors chars-per-pixel */
"16 16 256 2",
"   c #74747c7c7c7c",
".  c #bcbcc4c4c4c4",
"X  c #b4b4bcbcbcbc",
"o  c #9c9ca4a4a4a4",
"O  c #8c8c94949494",
"+  c #a4a4acacacac",
"@  c #ccccd4d4d4d4",
"#  c #74747c7c7c7c",
"$  c #bcbcc4c4c4c4",
"%  c #b4b4bcbcbcbc",
"&  c #9c9ca4a4a4a4",
"*  c #8c8c94949494",
"=  c #a4a4acacacac",
"-  c #ccccd4d4d4d4",
";  c #74747c7c7c7c",
":  c #bcbcc4c4c4c4",
">  c #b4b4bcbcbcbc",
",  c #9c9ca4a4a4a4",
"<  c #8c8c94949494",
"1  c #a4a4acacacac",
"2  c #ccccd4d4d4d4",
"3  c #74747c7c7c7c",
"4  c #bcbcc4c4c4c4",
"5  c #b4b4bcbcbcbc",
"6  c #9c9ca4a4a4a4",
"7  c #8c8c94949494",
"8  c #a4a4acacacac",
"9  c #ccccd4d4d4d4",
"0  c #74747c7c7c7c",
"q  c #bcbcc4c4c4c4",
"w  c #b4b4bcbcbcbc",
"e  c #9c9ca4a4a4a4",
"r  c #8c8c94949494",
"t  c #a4a4acacacac",
"y  c #ccccd4d4d4d4",
"u  c #74747c7c7c7c",
"i  c #bcbcc4c4c4c4",
"p  c #b4b4bcbcbcbc",
"a  c #9c9ca4a4a4a4",
"s  c #8c8c94949494",
"d  c #a4a4acacacac",
"f  c #ccccd4d4d4d4",
"g  c #74747c7c7c7c",
"h  c #bcbcc4c4c4c4",
"j  c #b4b4bcbcbcbc",
"k  c #9c9ca4a4a4a4",
"l  c #8c8c94949494",
"z  c #a4a4acacacac",
"x  c #ccccd4d4d4d4",
"c  c #74747c7c7c7c",
"v  c #bcbcc4c4c4c4",
"b  c #b4b4bcbcbcbc",
"n  c #9c9ca4a4a4a4",
"m  c #8c8c94949494",
"M  c #a4a4acacacac",
"N  c #ccccd4d4d4d4",
"B  c #74747c7c7c7c",
"V  c #bcbcc4c4c4c4",
"C  c #b4b4bcbcbcbc",
"Z  c #9c9ca4a4a4a4",
"A  c #8c8c94949494",
"S  c #a4a4acacacac",
"D  c #ccccd4d4d4d4",
"F  c #74747c7c7c7c",
"G  c #bcbcc4c4c4c4",
"H  c #b4b4bcbcbcbc",
"J  c #9c9ca4a4a4a4",
"K  c #8c8c94949494",
"L  c #a4a4acacacac",
"P  c #ccccd4d4d4d4",
"I  c #74747c7c7c7c",
"U  c #bcbcc4c4c4c4",
"Y  c #b4b4bcbcbcbc",
"T  c #9c9ca4a4a4a4",
"R  c #8c8c94949494",
"E  c #a4a4acacacac",
"W  c #ccccd4d4d4d4",
"Q  c #74747c7c7c7c",
"!  c #bcbcc4c4c4c4",
"~  c #b4b4bcbcbcbc",
"^  c #9c9ca4a4a4a4",
"/  c #8c8c94949494",
"(  c #a4a4acacacac",
")  c #ccccd4d4d4d4",
"_  c #74747c7c7c7c",
"`  c #bcbcc4c4c4c4",
"'  c #b4b4bcbcbcbc",
"]  c #9c9ca4a4a4a4",
"[  c #8c8c94949494",
"{  c #a4a4acacacac",
"}  c #ccccd4d4d4d4",
"|  c #74747c7c7c7c",
" . c #bcbcc4c4c4c4",
".. c #b4b4bcbcbcbc",
"X. c #9c9ca4a4a4a4",
"o. c #8c8c94949494",
"O. c #a4a4acacacac",
"+. c #ccccd4d4d4d4",
"@. c #74747c7c7c7c",
"#. c #bcbcc4c4c4c4",
"$. c #b4b4bcbcbcbc",
"%. c #9c9ca4a4a4a4",
"&. c #8c8c94949494",
"*. c #a4a4acacacac",
"=. c #ccccd4d4d4d4",
"-. c #74747c7c7c7c",
";. c #bcbcc4c4c4c4",
":. c #b4b4bcbcbcbc",
">. c #9c9ca4a4a4a4",
",. c #8c8c94949494",
"<. c #a4a4acacacac",
"1. c #ccccd4d4d4d4",
"2. c #74747c7c7c7c",
"3. c #bcbcc4c4c4c4",
"4. c #b4b4bcbcbcbc",
"5. c #9c9ca4a4a4a4",
"6. c #8c8c94949494",
"7. c #a4a4acacacac",
"8. c #ccccd4d4d4d4",
"9. c #74747c7c7c7c",
"0. c #bcbcc4c4c4c4",
"q. c #b4b4bcbcbcbc",
"w. c #9c9ca4a4a4a4",
"e. c #8c8c94949494",
"r. c #a4a4acacacac",
"t. c #ccccd4d4d4d4",
"y. c #74747c7c7c7c",
"u. c #bcbcc4c4c4c4",
"i. c #b4b4bcbcbcbc",
"p. c #9c9ca4a4a4a4",
"a. c #8c8c94949494",
"s. c #a4a4acacacac",
"d. c #ccccd4d4d4d4",
"f. c #74747c7c7c7c",
"g. c #bcbcc4c4c4c4",
"h. c #b4b4bcbcbcbc",
"j. c #9c9ca4a4a4a4",
"k. c #8c8c94949494",
"l. c #a4a4acacacac",
"z. c #ccccd4d4d4d4",
"x. c #74747c7c7c7c",
"c. c #bcbcc4c4c4c4",
"v. c #b4b4bcbcbcbc",
"b. c #9c9ca4a4a4a4",
"n. c #8c8c94949494",
"m. c #a4a4acacacac",
"M. c #ccccd4d4d4d4",
"N. c #74747c7c7c7c",
"B. c #bcbcc4c4c4c4",
"V. c #b4b4bcbcbcbc",
"C. c #9c9ca4a4a4a4",
"Z. c #8c8c94949494",
"A. c #a4a4acacacac",
"S. c #ccccd4d4d4d4",
"D. c #74747c7c7c7c",
"F. c #bcbcc4c4c4c4",
"G. c #b4b4bcbcbcbc",
"H. c #9c9ca4a4a4a4",
"J. c #8c8c94949494",
"K. c #a4a4acacacac",
"L. c #ccccd4d4d4d4",
"P. c #74747c7c7c7c",
"I. c #bcbcc4c4c4c4",
"U. c #b4b4bcbcbcbc",
"Y. c #9c9ca4a4a4a4",
"T. c #8c8c94949494",
"R. c #a4a4acacacac",
"E. c #ccccd4d4d4d4",
"W. c #74747c7c7c7c",
"Q. c #bcbcc4c4c4c4",
"!. c #b4b4bcbcbcbc",
"~. c #9c9ca4a4a4a4",
"^. c #8c8c94949494",
"/. c #a4a4acacacac",
"(. c #ccccd4d4d4d4",
"). c #74747c7c7c7c",
"_. c #bcbcc4c4c4c4",
"`. c #b4b4bcbcbcbc",
"'. c #9c9ca4a4a4a4",
"]. c #8c8c94949494",
"[. c #a4a4acacacac",
"{. c #ccccd4d4d4d4",
"}. c #74747c7c7c7c",
"|. c #bcbcc4c4c4c4",
" X c #b4b4bcbcbcbc",
".X c #9c9ca4a4a4a4",
"XX c #8c8c94949494",
"oX c #a4a4acacacac",
"OX c #ccccd4d4d4d4",
"+X c #74747c7c7c7c",
"@X c #bcbcc4c4c4c4",
"#X c #b4b4bcbcbcbc",
"$X c #9c9ca4a4a4a4",
"%X c #8c8c94949494",
"&X c #a4a4acacacac",
"*X c #ccccd4d4d4d4",
"=X c #74747c7c7c7c",
"-X c #bcbcc4c4c4c4",
";X c #b4b4bcbcbcbc",
":X c #9c9ca4a4a4a4",
">X c #8c8c94949494",
",X c #a4a4acacacac",
"<X c #ccccd4d4d4d4",
"1X c #74747c7c7c7c",
"2X c #bcbcc4c4c4c4",
"3X c #b4b4bcbcbcbc",
"4X c #9c9ca4a4a4a4",
"5X c #8c8c94949494",
"6X c #a4a4acacacac",
"7X c #ccccd4d4d4d4",
"8X c #74747c7c7c7c",
"9X c #bcbcc4c4c4c4",
"0X c #b4b4bcbcbcbc",
"qX c #9c9ca4a4a4a4",
"wX c #8c8c94949494",
"eX c #a4a4acacacac",
"rX c #ccccd4d4d4d4",
"tX c #74747c7c7c7c",
"yX c #bcbcc4c4c4c4",
"uX c #b4b4bcbcbcbc",
"iX c #9c9ca4a4a4a4",
"pX c #8c8c94949494",
"aX c #a4a4acacacac",
"sX c #ccccd4d4d4d4",
"dX c #74747c7c7c7c",
"fX c #bcbcc4c4c4c4",
"gX c #b4b4bcbcbcbc",
"hX c #9c9ca4a4a4a4",
"jX c #8c8c94949494",
"kX c #a4a4acacacac",
"lX c #ccccd4d4d4d4",
"zX c #74747c7c7c7c",
"xX c #bcbcc4c4c4c4",
"cX c #b4b4bcbcbcbc",
"vX c #9c9ca4a4a4a4",
"bX c #8c8c94949494",
"nX c #a4a4acacacac",
"mX c #ccccd4d4d4d4",
"MX c #74747c7c7c7c",
"NX c #bcbcc4c4c4c4",
"BX c #b4b4bcbcbcbc",
"VX c #9c9ca4a4a4a4",
"CX c #8c8c94949494",
"ZX c #a4a4acacacac",
"AX c #ccccd4d4d4d4",
"SX c #74747c7c7c7c",
"DX c #bcbcc4c4c4c4",
"FX c #b4b4bcbcbcbc",
"GX c #9c9ca4a4a4a4",
"HX c #909090909090",
"JX c Gray66",
"KX c #d0d0d0d0d0d0",
"LX c Gray47",
"PX c #c0c0c0c0c0c0",
"IX c Gray72",
"UX c #a0a0a0a0a0a0",
/* pixels */
"IX. IX. IXIX. IX. IXIX. IX. IX. ",
"IXPXIXPXPXIXPXPXIXPXIXPXPXIXPXPX",
"IXPXIXPX+ . KXPXPXIXPXPXIXPXIXPX",
"IXPXIXPXUXJXKX@ PXPXPXIXPXIXPXPX",
"IXPXIXPXUXLXIXKXKXPXIXPXPXIXPXIX",
"IXPXIXPXUXLXHXUXKX@ PXPXIXPXPXIX",
"IXPXIXPXUXLXHXLXJXKX@ PXPXIXPXIX",
"IXPXIXPXUXLXHXLXLXIXKXKXIXPXPXIX",
"IXPXIXPXUXLXHXLX  LXPXKXPXIXPX. ",
"IXPXIXPXUXLXHXLX  HXIXIXPXPXIXIX",
"IXPXIXPXUXLXHXLXHXIXIXPXPXIXPXIX",
"IXPXIXPXUXLXHXHXJXPXIXPXIXPXPXIX",
"IXPXIXPXUXLXO X IXIXPXPXPXPXIXIX",
"IXPXIXPXUXHXIXIXIXPXPXIXPXPXIXPX",
"IXPXIXPX+ IXIXPXIXPXIXPXPXIXPXPX",
"IXPXIXPXPXIXPXPXIXPXIXPXPXIXPXPX"
};
